<svg width="50" height="21" viewBox="0 0 50 21" fill="none" xmlns="http://www.w3.org/2000/svg">
<g clip-path="url(#clip0_8289_1742)">
<path d="M44.1857 17.0146H43.623V19.6577H44.1857V17.0146Z" fill="white"/>
<path d="M44.1857 15.999H43.623V16.5619H44.1857V15.999Z" fill="white"/>
<path d="M33.2621 16.9168C32.4915 16.9168 31.8799 17.5408 31.8799 18.3362C31.8799 19.1316 32.516 19.7556 33.2988 19.7556C33.7391 19.7556 34.1428 19.5598 34.4241 19.205L33.9226 18.9236C33.7636 19.0949 33.5434 19.1805 33.311 19.1805C32.9563 19.1805 32.6383 18.9603 32.5037 18.6299V18.6055H34.6442V18.324C34.6442 17.5286 34.0327 16.9045 33.2621 16.9045V16.9168ZM32.4915 18.0548V18.0303C32.6138 17.6877 32.9196 17.4796 33.2621 17.4796C33.6046 17.4796 33.9104 17.6999 34.0327 18.0303V18.0548H32.4915Z" fill="white"/>
<path d="M30.4128 18.067C29.8991 17.9813 29.8012 17.8712 29.8012 17.7121C29.8012 17.5163 29.9725 17.3939 30.266 17.3939C30.5351 17.3939 30.7309 17.5163 30.792 17.7733H31.3791C31.3179 17.2349 30.9143 16.929 30.2538 16.929C29.5933 16.929 29.1897 17.2716 29.1897 17.7488C29.1897 18.226 29.471 18.4463 30.1804 18.5687C30.7186 18.6666 30.8165 18.7645 30.8165 18.948C30.8165 19.156 30.6208 19.2906 30.3027 19.2906C30.0703 19.2906 29.7767 19.2294 29.6789 18.8624H29.0918C29.153 19.4374 29.5811 19.78 30.2905 19.78C31 19.78 31.4158 19.4252 31.4158 18.8991C31.4158 18.4341 31.11 18.1893 30.3884 18.0792L30.4128 18.067Z" fill="white"/>
<path d="M40.1731 18.4463C40.1731 18.8746 39.8673 19.1805 39.4392 19.1805C39.0111 19.1805 38.7053 18.8746 38.7053 18.4463V17.0269H38.1182V18.4463C38.1182 18.8256 38.2527 19.1683 38.5096 19.4008C38.7542 19.6332 39.0967 19.7678 39.4514 19.7678C39.8062 19.7678 40.1487 19.6455 40.3932 19.4008C40.6501 19.1683 40.7847 18.8134 40.7847 18.4463V17.0269H40.1976V18.4463H40.1731Z" fill="white"/>
<path d="M36.5038 17.4796C36.773 17.4796 37.0176 17.602 37.1765 17.81L37.6903 17.5531C37.4212 17.1492 36.9809 16.9167 36.5038 16.9167C35.721 16.9167 35.085 17.5531 35.085 18.3362C35.085 19.1193 35.721 19.7556 36.5038 19.7556C36.9809 19.7556 37.4212 19.5231 37.6903 19.1193L37.1765 18.8624C37.0176 19.0704 36.773 19.1927 36.5038 19.1927C36.0268 19.1927 35.6476 18.8012 35.6476 18.3362C35.6476 17.8712 36.039 17.4796 36.5038 17.4796Z" fill="white"/>
<path d="M45.592 16.3293H45.0049V18.4463C45.0049 18.8256 45.1394 19.1682 45.3962 19.4007C45.4452 19.4496 45.5063 19.4986 45.5675 19.5353C45.7877 19.6821 46.0568 19.7678 46.3381 19.7678H46.5827V19.1804H46.3381C45.8978 19.1804 45.6042 18.8745 45.6042 18.4463V17.602H46.5827V17.039H45.6042V16.3416L45.592 16.3293Z" fill="white"/>
<path d="M42.0818 17.0147H41.4824V19.6578H42.0818V18.5321C42.0818 17.9936 42.5099 17.5653 43.0481 17.5653V16.978C42.6811 16.978 42.3508 17.1126 42.0818 17.3206V17.0147Z" fill="white"/>
<path d="M48.846 17.0269L48.3567 19.0826H48.2588C48.2588 19.0826 48.1365 19.0215 48.1243 18.9603L47.635 17.0269H47.0234L47.5494 19.1071C47.635 19.4252 47.9041 19.6455 48.2099 19.6699L47.9653 20.7101H48.5402L48.7848 19.6699V19.6455L49.4208 17.0146H48.8338L48.846 17.0269Z" fill="white"/>
<path d="M6.10833 16.9167C5.32551 16.9167 4.68945 17.5531 4.68945 18.3362C4.68945 19.1193 5.32551 19.7556 6.10833 19.7556C6.89117 19.7556 7.52722 19.1193 7.52722 18.3362C7.52722 17.5531 6.89117 16.9167 6.10833 16.9167ZM6.10833 19.1805C5.64353 19.1805 5.27658 18.8012 5.27658 18.3485C5.27658 17.8957 5.65576 17.5164 6.10833 17.5164C6.56091 17.5164 6.94009 17.8957 6.94009 18.3485C6.94009 18.8012 6.56091 19.1805 6.10833 19.1805Z" fill="white"/>
<path d="M26.7673 17.2716C26.5227 17.0391 26.1924 16.9167 25.8255 16.9167C25.5564 16.9167 25.2995 16.9902 25.0793 17.1248V17.0146H24.4922V19.6577H25.0793V18.2261C25.0793 17.7978 25.3851 17.4919 25.8255 17.4919C26.2658 17.4919 26.5716 17.7978 26.5716 18.2261V19.6455H27.1588V18.2261C27.1588 17.8468 27.012 17.5041 26.7673 17.2594V17.2716Z" fill="white"/>
<path d="M17.7405 16.9169C17.4714 16.9169 17.2146 16.9903 16.9944 17.1249V15.9746H16.4072V19.67H16.9944V18.2384C16.9944 17.8101 17.3002 17.5042 17.7405 17.5042C18.1808 17.5042 18.4867 17.8101 18.4867 18.2384V19.6578H19.0737V18.2384C19.0737 17.859 18.927 17.5164 18.6824 17.2717C18.4377 17.0392 18.1074 16.9169 17.7405 16.9169Z" fill="white"/>
<path d="M1.92474 16.9169C1.61895 16.9169 1.32538 17.0147 1.09298 17.186V15.9746H0.505859V19.67H1.09298V19.4987C1.32538 19.67 1.61895 19.7679 1.92474 19.7679C2.70757 19.7679 3.34363 19.1317 3.34363 18.3485C3.34363 17.5654 2.70757 16.9291 1.92474 16.9291V16.9169ZM1.92474 19.1806C1.45993 19.1806 1.09298 18.8013 1.09298 18.3485C1.09298 17.8958 1.47216 17.5164 1.92474 17.5164C2.37731 17.5164 2.7565 17.8958 2.7565 18.3485C2.7565 18.8013 2.37731 19.1806 1.92474 19.1806Z" fill="white"/>
<path d="M21.8376 17.2104L21.8131 17.186C21.5685 17.0146 21.2872 16.9167 20.9814 16.9167C20.1985 16.9167 19.5625 17.5531 19.5625 18.3362C19.5625 19.1193 20.1985 19.7556 20.9814 19.7556C21.2872 19.7556 21.5685 19.6577 21.8131 19.4864L21.8376 19.4619V19.6455H22.4003V17.0146H21.8376V17.2104ZM20.9814 19.205C20.5043 19.205 20.1251 18.8134 20.1251 18.3485C20.1251 17.8835 20.5166 17.4919 20.9814 17.4919C21.4462 17.4919 21.8376 17.8712 21.8376 18.3485C21.8376 18.8257 21.4462 19.205 20.9814 19.205Z" fill="white"/>
<path d="M9.21478 17.4796C9.48389 17.4796 9.72854 17.602 9.88748 17.81L10.4012 17.5531C10.1321 17.1492 9.69184 16.9167 9.21478 16.9167C8.43191 16.9167 7.7959 17.5531 7.7959 18.3362C7.7959 19.1193 8.43191 19.7556 9.21478 19.7556C9.69184 19.7556 10.1321 19.5231 10.4012 19.1193L9.88748 18.8624C9.72854 19.0704 9.48389 19.1927 9.21478 19.1927C8.73772 19.1927 8.35851 18.8134 8.35851 18.3362C8.35851 17.859 8.74995 17.4796 9.21478 17.4796Z" fill="white"/>
<path d="M14.7431 17.4796C15.0122 17.4796 15.2569 17.602 15.4159 17.81L15.9296 17.5531C15.6605 17.1492 15.2202 16.9167 14.7431 16.9167C13.9603 16.9167 13.3242 17.5531 13.3242 18.3362C13.3242 19.1193 13.9603 19.7556 14.7431 19.7556C15.2202 19.7556 15.6605 19.5231 15.9296 19.1193L15.4159 18.8624C15.2569 19.0704 15.0122 19.1927 14.7431 19.1927C14.266 19.1927 13.8869 18.8134 13.8869 18.3362C13.8869 17.859 14.2783 17.4796 14.7431 17.4796Z" fill="white"/>
<path d="M13.2999 17.027H12.566L11.722 18.0426H11.3917V15.9746H10.8291V19.67H11.3917V18.6544H11.722L12.566 19.67H13.2999L12.1991 18.3485L13.2999 17.027Z" fill="white"/>
<path d="M4.30973 15.9746H3.74707V19.67H4.30973V15.9746Z" fill="white"/>
<path d="M23.7707 17.0269H23.208V19.6699H23.7707V17.0269Z" fill="white"/>
<path d="M23.7707 16.0112H23.208V16.5741H23.7707V16.0112Z" fill="white"/>
<path fill-rule="evenodd" clip-rule="evenodd" d="M27.099 12.8641L24.3292 9.53946H23.2374V12.8641H21.3881V0.776855H23.2374V7.55206H24.3292L27.0967 4.22746H29.5017L25.907 8.54578L29.5044 12.8641H27.099ZM5.17334 5.73074C3.61946 5.73074 2.35505 6.99367 2.35505 8.54571C2.35505 10.0978 3.61946 11.3607 5.17334 11.3607C6.72721 11.3607 7.99128 10.0978 7.99128 8.54571C7.99128 6.99367 6.72721 5.73074 5.17334 5.73074ZM5.17346 13.2079C2.59982 13.2079 0.505859 11.1164 0.505859 8.54571C0.505859 5.9751 2.59982 3.88359 5.17346 3.88359C6.15837 3.88359 7.10178 4.18929 7.90148 4.76655L7.99142 4.83154V4.22743H9.84076V12.864H7.99142V12.26L7.90148 12.3246C7.10212 12.9025 6.15837 13.2079 5.17346 13.2079ZM16.0882 13.2079C13.5148 13.2079 11.4209 11.1164 11.4209 8.54571C11.4209 5.9751 13.5148 3.88359 16.0882 3.88359C17.6583 3.88359 19.1069 4.66178 19.976 5.96748L18.2983 6.80037C17.7609 6.12 16.9579 5.73074 16.0882 5.73074C14.5343 5.73074 13.2702 6.99367 13.2698 8.54571C13.2702 10.0978 14.5343 11.3607 16.0882 11.3607C16.9579 11.3607 17.7609 10.9718 18.2983 10.2911L19.976 11.124C19.1069 12.4297 17.6583 13.2079 16.0882 13.2079ZM34.439 5.73074C33.2844 5.73074 32.2966 6.44394 31.9217 7.54739L31.8965 7.62199H36.9814L36.9558 7.54739C36.5814 6.44394 35.5935 5.73074 34.439 5.73074ZM34.5788 13.2079C32.0052 13.2079 29.9113 11.1164 29.9113 8.54571C29.9113 5.93167 31.9 3.88359 34.4388 3.88359C36.9776 3.88359 38.9659 5.93167 38.9659 8.54571V9.46915H31.9152L31.9444 9.54571C32.3587 10.6316 33.418 11.3607 34.5788 11.3607C35.3486 11.3607 36.0627 11.0603 36.5948 10.5132L38.2543 11.4197C37.3626 12.557 36.0271 13.2079 34.5788 13.2079ZM44.9058 5.73074C43.7512 5.73074 42.7634 6.44394 42.3886 7.54739L42.3634 7.62199H47.4479L47.4227 7.54739C47.0482 6.44394 46.06 5.73074 44.9058 5.73074ZM45.0457 13.2079C42.4721 13.2079 40.3781 11.1164 40.3781 8.54571C40.3781 5.93167 42.3668 3.88359 44.9056 3.88359C47.4441 3.88359 49.4328 5.93167 49.4328 8.54571V9.46915H42.3821L42.4113 9.54571C42.8256 10.6316 43.8842 11.3607 45.0457 11.3607C45.8152 11.3607 46.5292 11.0603 47.0617 10.5132L48.7211 11.4197C47.8295 12.557 46.4937 13.2079 45.0457 13.2079Z" fill="white"/>
</g>
<defs>
<clipPath id="clip0_8289_1742">
<rect width="49" height="20" fill="white" transform="translate(0.5 0.729248)"/>
</clipPath>
</defs>
</svg>
