<svg width="83" height="21" viewBox="0 0 83 21" fill="none" xmlns="http://www.w3.org/2000/svg">
<g clip-path="url(#clip0_8289_1734)">
<path fill-rule="evenodd" clip-rule="evenodd" d="M18.0662 3.83175L18.1679 4.47277C18.2443 5.06252 18.2825 5.65226 18.2697 6.25483C18.2697 7.57534 18.1171 8.88303 17.8117 10.1651C17.4045 11.8959 16.692 13.5497 15.7123 15.0369C14.5799 16.7292 12.9385 18.383 10.5592 19.742L10.2666 19.9087L9.97394 19.742C7.59462 18.4087 5.95327 16.742 4.82087 15.0369C3.82842 13.5497 3.12862 11.9087 2.72147 10.1651C2.4161 8.88303 2.26342 7.57534 2.26342 6.25483C2.26342 5.66508 2.28887 5.06252 2.36521 4.47277L2.45427 3.83175C2.467 3.78047 2.467 3.72918 2.45427 3.6779C2.44155 3.62662 2.42882 3.57534 2.39065 3.53688C2.36521 3.49841 2.32704 3.45995 2.28886 3.43431C2.25069 3.40867 2.1998 3.39585 2.16163 3.38303C2.11073 3.37021 2.05984 3.37021 2.00894 3.38303C1.95805 3.39585 1.90716 3.42149 1.86899 3.44713C1.83081 3.47277 1.79264 3.51124 1.7672 3.5497C1.74175 3.60098 1.72902 3.65226 1.7163 3.70354L1.61451 4.34457C1.53817 4.97277 1.5 5.6138 1.5 6.25483C1.5 7.63944 1.66541 9.01124 1.9835 10.3574C2.1998 11.2676 2.49244 12.1651 2.86143 13.0241C3.23041 13.883 3.67574 14.7035 4.19741 15.4856C5.39343 17.2805 7.12384 19.0369 9.61767 20.4215L10.0884 20.6907C10.1521 20.7164 10.2157 20.7292 10.2793 20.7292C10.3429 20.7292 10.4065 20.7164 10.4702 20.6907L10.9409 20.4215C13.422 19.0241 15.1652 17.2676 16.3612 15.4856C17.4045 13.9215 18.1552 12.1779 18.5751 10.3574C18.8932 9.01124 19.0459 7.63944 19.0459 6.25483C19.0459 5.6138 19.0077 4.97278 18.9314 4.33175L18.8296 3.69072C18.8169 3.63944 18.8041 3.58816 18.7787 3.53688C18.7532 3.49841 18.7151 3.45995 18.6769 3.43431C18.6387 3.40867 18.5878 3.38303 18.5369 3.37021C18.486 3.35739 18.4351 3.35739 18.3842 3.37021C18.3334 3.38303 18.2825 3.39585 18.2316 3.42149C18.1934 3.44713 18.1552 3.4856 18.1298 3.52406C18.1043 3.56252 18.0789 3.6138 18.0662 3.66508V3.83175Z" fill="white"/>
<path fill-rule="evenodd" clip-rule="evenodd" d="M4.5919 3.39597L10.2921 1.58828L16.1068 3.43443C16.1577 3.44725 16.2086 3.44725 16.2595 3.44725C16.3104 3.44725 16.3612 3.43443 16.4121 3.40879C16.463 3.38315 16.5012 3.35751 16.5394 3.30623C16.5776 3.26777 16.603 3.21648 16.603 3.1652C16.6157 3.11392 16.6157 3.06264 16.6157 3.01136C16.6157 2.96007 16.603 2.90879 16.5776 2.85751C16.5521 2.80623 16.5267 2.76777 16.4885 2.7293C16.4503 2.69084 16.3994 2.6652 16.3485 2.6652L10.4066 0.767766C10.3303 0.742125 10.2539 0.742125 10.1776 0.767766L4.37559 2.61392C4.3247 2.62674 4.28653 2.65238 4.23563 2.67802C4.19746 2.71648 4.15929 2.75494 4.14657 2.80623C4.12112 2.85751 4.1084 2.90879 4.1084 2.96007C4.1084 3.01135 4.1084 3.06264 4.12112 3.11392C4.13385 3.1652 4.15929 3.21648 4.18474 3.25494C4.21019 3.29341 4.26108 3.33187 4.31198 3.35751C4.35015 3.38315 4.40104 3.39597 4.46466 3.39597C4.49011 3.40879 4.541 3.40879 4.5919 3.39597Z" fill="white"/>
<path fill-rule="evenodd" clip-rule="evenodd" d="M1.7798 3.94717L9.93564 20.5113C9.96109 20.5754 10.012 20.6267 10.0629 20.6651C10.1901 20.742 10.3428 20.742 10.47 20.6651C10.5337 20.6267 10.5845 20.5754 10.6227 20.5113L15.5977 10.8318L15.6104 10.819L18.7913 3.93435C18.8167 3.88306 18.8295 3.83178 18.8295 3.7805C18.8295 3.72922 18.8295 3.67794 18.804 3.62666C18.7913 3.57537 18.7658 3.52409 18.7277 3.48563C18.7022 3.44717 18.6513 3.40871 18.6132 3.38306C18.575 3.35742 18.5241 3.3446 18.4605 3.3446C18.4096 3.3446 18.3587 3.3446 18.3078 3.35742C18.2569 3.37024 18.206 3.39589 18.1678 3.43435C18.1297 3.47281 18.0915 3.51127 18.0788 3.56255L14.8979 10.4472L10.2665 19.46L2.45415 3.56255C2.4287 3.52409 2.39053 3.47281 2.36508 3.43435C2.32691 3.39589 2.27602 3.37024 2.22512 3.35742C2.17423 3.33178 2.12334 3.33178 2.07244 3.3446C2.02155 3.3446 1.97065 3.35742 1.91976 3.38306C1.88159 3.40871 1.83069 3.44717 1.80524 3.48563C1.7798 3.52409 1.75435 3.57537 1.74163 3.62666C1.7289 3.67794 1.71618 3.72922 1.7289 3.7805C1.74163 3.8446 1.75435 3.89589 1.7798 3.94717Z" fill="white"/>
<path fill-rule="evenodd" clip-rule="evenodd" d="M5.68564 11.3316H14.7703C14.8212 11.3316 14.8721 11.3188 14.923 11.306C14.9739 11.2932 15.0121 11.2547 15.0375 11.2162C15.0757 11.1778 15.1011 11.1393 15.1138 11.088C15.152 10.9855 15.152 10.8829 15.1138 10.7803C15.1011 10.729 15.063 10.6906 15.0375 10.6521C14.9993 10.6137 14.9612 10.588 14.923 10.5624C14.8721 10.5496 14.8212 10.5367 14.7703 10.5367H5.68564C5.63475 10.5367 5.58385 10.5496 5.53296 10.5624C5.48206 10.5752 5.44389 10.6137 5.41845 10.6521C5.38028 10.6906 5.35483 10.729 5.3421 10.7803C5.30393 10.8829 5.30393 10.9855 5.3421 11.088C5.35483 11.1393 5.38028 11.1778 5.41845 11.2162C5.45662 11.2547 5.49479 11.2803 5.53296 11.306C5.58385 11.3188 5.63475 11.3188 5.68564 11.3316ZM31.0057 7.88289H25.1019C25.051 7.88289 25.0001 7.89572 24.9492 7.90854C24.8983 7.92136 24.8601 7.95982 24.8347 7.99828C24.7965 8.03674 24.7711 8.0752 24.7584 8.12649C24.7456 8.17777 24.7329 8.22905 24.7329 8.28033V13.2162C24.7329 13.2675 24.7456 13.3188 24.7584 13.3701C24.7711 13.4214 24.7965 13.4598 24.8347 13.4983C24.8729 13.5367 24.911 13.5624 24.9492 13.588C25.0001 13.6008 25.051 13.6137 25.1019 13.6137H31.0057V14.447H25.1019C25.0256 14.447 24.9492 14.4342 24.8729 14.4214C24.7965 14.4085 24.7202 14.3829 24.6438 14.3573C24.5675 14.3316 24.5039 14.2932 24.4403 14.2547C24.3766 14.2034 24.3258 14.1521 24.2621 14.1008C24.1476 13.9855 24.0713 13.8573 24.0077 13.7162C23.9822 13.6393 23.9568 13.5624 23.944 13.4855C23.9313 13.4085 23.9186 13.3316 23.9186 13.2547V8.29315C23.9186 8.21623 23.9313 8.13931 23.944 8.06238C23.9568 7.98546 23.9822 7.90854 24.0077 7.83161C24.0331 7.75469 24.0713 7.67777 24.1095 7.61367C24.1476 7.54956 24.1985 7.48546 24.2621 7.43418C24.313 7.38289 24.3766 7.33161 24.4403 7.28033C24.5039 7.24187 24.5675 7.20341 24.6438 7.17777C24.7202 7.15212 24.7965 7.12648 24.8729 7.11366C24.9492 7.10084 25.0256 7.08802 25.1019 7.08802H31.0057V7.88289ZM42.0879 7.04956V7.88289H36.4005V10.3316H40.9683V11.1778H36.4005V13.6265H42.0879V14.4598H35.6116V7.04956H42.0879Z" fill="white"/>
<path d="M53.8068 8.30609V10.4728C53.8068 10.5497 53.7941 10.6266 53.7814 10.7035C53.7686 10.7804 53.7432 10.8574 53.7178 10.9343C53.6923 11.0112 53.6541 11.0881 53.616 11.1522C53.5651 11.2163 53.5269 11.2805 53.4633 11.3317C53.4124 11.383 53.3488 11.4343 53.2851 11.4856C53.2215 11.524 53.1579 11.5625 53.0816 11.5881C53.0052 11.6138 52.9289 11.6394 52.8525 11.6651C52.7762 11.6779 52.6999 11.6907 52.6235 11.6907H51.542L53.7686 14.4471H52.6999L50.486 11.6907H47.8903C47.7631 11.6907 47.6359 11.6779 47.5086 11.6522V14.4471H46.707V7.0625H52.6362C52.7126 7.0625 52.7889 7.07532 52.8653 7.08814C52.9416 7.10096 53.018 7.1266 53.0943 7.15225C53.1706 7.17789 53.2343 7.21635 53.2979 7.26763C53.4251 7.35737 53.5269 7.47276 53.616 7.60096C53.6541 7.66507 53.6923 7.74199 53.7178 7.81891C53.7432 7.89583 53.7686 7.97276 53.7814 8.04968C53.7941 8.13943 53.8068 8.22917 53.8068 8.30609ZM47.8776 10.8702H52.6235C52.6744 10.8702 52.7253 10.8574 52.7762 10.8446C52.8271 10.8317 52.8653 10.8061 52.8907 10.7548C52.9289 10.7164 52.9543 10.6779 52.9671 10.6266C52.9798 10.5753 52.9925 10.524 52.9925 10.4728V8.30609C52.9925 8.20353 52.9543 8.10096 52.8907 8.02404C52.8271 7.94712 52.7253 7.89583 52.6235 7.89583H47.8776C47.8267 7.89583 47.7758 7.90866 47.7249 7.92148C47.674 7.9343 47.6359 7.97276 47.6104 8.01122C47.5722 8.04968 47.5468 8.08814 47.5341 8.13942C47.5213 8.1907 47.5086 8.24199 47.5086 8.29327V10.4599C47.5086 10.5625 47.5468 10.6651 47.6359 10.742C47.6868 10.8189 47.7885 10.8702 47.8776 10.8702Z" fill="white"/>
<path fill-rule="evenodd" clip-rule="evenodd" d="M58.0566 7.0498H65.1564V7.88314H62.0137V14.4472H61.2121V7.88314H58.0566V7.0498ZM69.4825 14.4601V7.06263H70.284V14.4601H69.4825ZM80.9592 7.0498H81.9898L79.0252 10.7549L82.0025 14.4601H80.9592L78.3127 11.178H76.0224V14.4601H75.2208V7.06263H76.0351V10.3447H78.3254L80.9592 7.0498Z" fill="white"/>
</g>
<defs>
<clipPath id="clip0_8289_1734">
<rect width="82" height="20" fill="white" transform="translate(0.5 0.729248)"/>
</clipPath>
</defs>
</svg>
