<svg width="69" height="21" viewBox="0 0 69 21" fill="none" xmlns="http://www.w3.org/2000/svg">
<g clip-path="url(#clip0_8289_1783)">
<mask id="mask0_8289_1783" style="mask-type:luminance" maskUnits="userSpaceOnUse" x="1" y="-1" width="67" height="23">
<path d="M67.4459 -0.270752H1.5V21.3509H67.4459V-0.270752Z" fill="white"/>
</mask>
<g mask="url(#mask0_8289_1783)">
<path d="M24.1382 10.2102C24.1219 9.72912 24.203 9.25345 24.376 8.8048C24.549 8.35615 24.8138 7.94534 25.149 7.6048C25.4841 7.25885 25.8895 6.98318 26.3328 6.79939C26.776 6.61561 27.2571 6.51831 27.7382 6.51831C29.5598 6.51831 30.6355 7.57777 30.9598 8.82642L29.8192 9.2102C29.7165 8.74534 29.4517 8.33453 29.0733 8.04804C28.6895 7.76155 28.2192 7.62101 27.7436 7.65344C26.5652 7.65344 25.3868 8.5075 25.3868 10.2372C25.3868 11.967 26.5382 12.7886 27.7598 12.7886C28.2409 12.8048 28.7111 12.6534 29.0949 12.3724C29.4787 12.0859 29.7598 11.6859 29.8841 11.2264L30.9922 11.5886C30.803 12.2913 30.376 12.9075 29.7868 13.3345C29.1976 13.7616 28.4733 13.9778 27.7436 13.9399C27.2571 13.9507 26.7706 13.8589 26.3219 13.6697C25.8733 13.4859 25.4625 13.2102 25.1273 12.8589C24.7868 12.5075 24.5273 12.0967 24.3598 11.6372C24.1868 11.1778 24.1111 10.6913 24.1382 10.2102Z" fill="white"/>
<path d="M33.1915 13.7617H32.0186V6.49683H33.1915V9.34548C33.3645 9.14548 33.5753 8.98331 33.8186 8.88061C34.0618 8.7725 34.3213 8.72385 34.5861 8.73466C35.7969 8.73466 36.3807 9.59953 36.3807 10.6752V13.7671H35.2456V10.8752C35.2672 10.7347 35.2564 10.5887 35.2132 10.4536C35.1699 10.3184 35.0996 10.1941 35.0023 10.086C34.905 9.98331 34.7861 9.90223 34.651 9.84818C34.5159 9.79412 34.3753 9.7725 34.2294 9.78331C34.0888 9.78331 33.9483 9.81034 33.8186 9.8698C33.6888 9.92385 33.5753 10.0103 33.478 10.113C33.3807 10.2157 33.3104 10.3401 33.2618 10.4698C33.2186 10.6049 33.1969 10.7455 33.2131 10.886L33.1915 13.7617Z" fill="white"/>
<path d="M38.9973 10.9615L40.2568 10.7669C40.5378 10.7291 40.6189 10.5885 40.6189 10.4156C40.6189 10.0047 40.3378 9.66961 39.6892 9.66961C39.5649 9.6588 39.4351 9.67502 39.3162 9.71286C39.1973 9.75069 39.0838 9.81556 38.9919 9.89664C38.9 9.97772 38.8189 10.0804 38.7649 10.1939C38.7108 10.3075 38.6784 10.4318 38.6784 10.5561L37.6081 10.3183C37.6946 9.47502 38.4676 8.71826 39.673 8.71826C41.1865 8.71826 41.7649 9.57232 41.7649 10.5669V12.9939C41.7649 13.2588 41.7811 13.5183 41.8243 13.7777H40.7324C40.6946 13.5723 40.6784 13.3615 40.6838 13.1561C40.5216 13.4047 40.2946 13.6047 40.0297 13.7399C39.7649 13.875 39.4676 13.9399 39.1703 13.9237C38.9649 13.9399 38.7541 13.9183 38.5541 13.848C38.3541 13.7831 38.1757 13.675 38.0189 13.5399C37.8622 13.4047 37.7378 13.2372 37.6459 13.048C37.5595 12.8588 37.5054 12.6588 37.5 12.448C37.5108 11.5615 38.1541 11.0804 38.9973 10.9615ZM40.6189 11.7453V11.5237L39.3378 11.7129C39.1649 11.7183 38.9973 11.7885 38.8784 11.9129C38.7541 12.0372 38.6892 12.2047 38.6838 12.3777C38.6838 12.4696 38.7054 12.5561 38.7432 12.6372C38.7811 12.7183 38.8351 12.7885 38.9 12.848C38.9649 12.9075 39.0459 12.9507 39.1324 12.9777C39.2189 13.0047 39.3108 13.0156 39.3973 13.0047C39.5649 13.021 39.7378 12.9993 39.8946 12.9399C40.0568 12.8804 40.1973 12.7885 40.3162 12.6642C40.4351 12.5399 40.5216 12.3939 40.5757 12.2318C40.6243 12.0858 40.6405 11.9129 40.6189 11.7453Z" fill="white"/>
<path d="M43.7538 6.39429C43.8565 6.39429 43.9538 6.4105 44.0511 6.44834C44.1429 6.48618 44.2294 6.54023 44.3051 6.6105C44.3754 6.68077 44.4348 6.76726 44.4727 6.85915C44.5105 6.95104 44.5321 7.05375 44.5321 7.15104C44.5321 7.35104 44.4511 7.54564 44.3105 7.68618C44.17 7.82672 43.9754 7.9078 43.77 7.9078C43.57 7.9078 43.3754 7.82672 43.2294 7.68618C43.0889 7.54564 43.0078 7.35104 43.0078 7.15104C43.0078 6.95104 43.0835 6.76185 43.224 6.62131C43.3646 6.48077 43.5538 6.39969 43.7538 6.39429ZM43.1862 13.7835V8.87537H44.3429V13.7619L43.1862 13.7835Z" fill="white"/>
<path d="M47.0245 13.7618H45.8516V8.8753H46.9921V9.52395C47.138 9.2753 47.3543 9.0699 47.6083 8.92936C47.8624 8.78881 48.1543 8.71854 48.4462 8.72936C49.6462 8.72936 50.2191 9.59422 50.2191 10.6699V13.7618H49.0462V10.8699C49.0462 10.2699 48.7705 9.78341 48.0407 9.78341C47.8948 9.78341 47.7489 9.81584 47.6191 9.8753C47.484 9.93476 47.3651 10.0212 47.2732 10.1294C47.1759 10.2375 47.1056 10.3672 47.0624 10.5077C47.0191 10.6483 47.0083 10.7942 47.0245 10.9348V13.7618Z" fill="white"/>
<path d="M51.6514 13.7617V6.49683H52.8243V13.7617H51.6514Z" fill="white"/>
<path d="M54.9108 6.39404C55.1162 6.39404 55.3108 6.47512 55.4513 6.61566C55.5973 6.75621 55.6784 6.9508 55.6784 7.15621C55.6784 7.30756 55.6297 7.4535 55.5486 7.57783C55.4622 7.70215 55.3432 7.79945 55.2081 7.8535C55.0676 7.90756 54.9162 7.92377 54.7703 7.89675C54.6243 7.86972 54.4892 7.79404 54.3811 7.69134C54.273 7.58323 54.2027 7.4535 54.1703 7.30215C54.1432 7.15621 54.1541 7.00485 54.2135 6.86431C54.273 6.72377 54.3649 6.61026 54.4946 6.52377C54.6135 6.44269 54.7595 6.39404 54.9108 6.39404ZM54.3378 13.7832V8.87512H55.5V13.7616L54.3378 13.7832Z" fill="white"/>
<path d="M58.1818 13.7618H57.0088V8.8753H58.1493V9.52395C58.2953 9.2753 58.5115 9.0699 58.7655 8.92936C59.0196 8.78881 59.3115 8.71854 59.6034 8.72936C60.8034 8.72936 61.3818 9.59422 61.3818 10.6699V13.7618H60.2088V10.8699C60.2304 10.7294 60.2196 10.5834 60.1764 10.4483C60.1331 10.3131 60.0628 10.1888 59.9655 10.0807C59.8682 9.978 59.7493 9.89692 59.6142 9.84287C59.4791 9.78882 59.3385 9.76719 59.1926 9.778C59.0466 9.778 58.9007 9.81044 58.7709 9.8699C58.6358 9.92936 58.5223 10.0158 58.425 10.1294C58.3277 10.2375 58.2574 10.3672 58.2142 10.5077C58.1709 10.6483 58.1601 10.7942 58.1764 10.9348V13.7618H58.1818Z" fill="white"/>
<path d="M65.3811 10.9401L67.446 13.7617H66.0135L64.5703 11.7509L63.9649 12.3833V13.7671H62.8027V6.49683H63.9649V10.8536L65.8514 8.87521H67.4081L65.3811 10.9401Z" fill="white"/>
<path d="M10.273 4.53464L15.3324 7.42653V13.2319L10.2838 16.14L5.22432 13.2536V7.44815L10.273 4.53464ZM10.273 0.269775L8.41351 1.34005L3.35405 4.25356L1.5 5.32383V7.45897V13.259V15.3941L3.35946 16.4536L8.41892 19.3455L10.2784 20.4049L12.1378 19.3346L17.1865 16.4211L19.0459 15.3563V13.2211V7.41572V5.28059L17.1865 4.22113L12.127 1.32923L10.2676 0.269775H10.273Z" fill="#375BD2"/>
</g>
</g>
<defs>
<clipPath id="clip0_8289_1783">
<rect width="68" height="20" fill="white" transform="translate(0.5 0.729248)"/>
</clipPath>
</defs>
</svg>
