<svg width="48" height="48" viewBox="0 0 48 48" fill="none" xmlns="http://www.w3.org/2000/svg">
<path d="M40.4383 29.3399C40.3322 32.0486 38.1253 34.2684 35.4142 34.3938C33.9539 34.4618 32.571 33.9447 31.5176 32.9389C30.4661 31.935 29.887 30.5824 29.887 29.1301C29.887 28.2465 29.9199 26.506 29.9454 25.2924L25.3107 25.2784L25.2819 31.3329C25.2802 31.6823 25.1369 32.0161 24.8846 32.2577C24.6323 32.4995 24.2927 32.628 23.9436 32.615C23.907 32.6135 20.3044 32.4763 18.903 32.4763C18.8895 32.4763 18.8762 32.4763 18.8632 32.4763C18.1844 32.4777 17.5168 32.7864 16.9836 33.3457C16.4404 33.9155 16.1341 34.6476 16.1641 35.304C16.2276 36.6876 17.3639 37.8138 18.7511 37.8679C20.1757 37.9235 23.9183 37.848 23.9559 37.8472C24.3038 37.8407 24.6394 37.9738 24.8871 38.2178C25.1347 38.4619 25.2734 38.7957 25.2714 39.1435L25.2318 46.0009H40.7578C43.6484 46.0009 46 43.6504 46 40.7613V25.3476L40.4108 25.3154C40.4419 26.5714 40.4754 28.3913 40.4383 29.3399Z" fill="url(#paint0_linear_110_11165)"/>
<path d="M18.6508 40.4437C15.9366 40.3379 13.713 38.1319 13.5888 35.4217C13.5261 34.0565 14.0834 32.6513 15.1176 31.5665C16.1407 30.4933 17.4691 29.9007 18.8581 29.8979C19.7466 29.8948 21.4907 29.9491 22.7102 29.9906L22.7325 25.3012L16.7328 25.283C16.3864 25.282 16.0549 25.1416 15.8132 24.8933C15.5714 24.645 15.4399 24.3101 15.448 23.9637C15.4488 23.9268 15.5347 20.2508 15.5347 18.8711C15.5347 18.1302 15.239 17.4398 14.7019 16.927C14.163 16.4124 13.4545 16.1478 12.7049 16.1828C11.3195 16.2469 10.1919 17.3798 10.1378 18.7621C10.0824 20.1758 10.2024 23.9031 10.2036 23.9406C10.215 24.2909 10.0833 24.6306 9.8388 24.8817C9.59603 25.131 9.26293 25.2715 8.91514 25.2715C8.91265 25.2715 8.91024 25.2715 8.90775 25.2715L2 25.2319V40.7583C2 43.6489 4.35048 46.0005 7.23953 46.0005H22.6537L22.6857 40.4467C21.4299 40.4645 19.6002 40.4808 18.6508 40.4437Z" fill="url(#paint1_linear_110_11165)"/>
<path d="M29.3493 7.55673C32.0635 7.66252 34.287 9.86854 34.4113 12.5788C34.4739 13.9439 33.9167 15.349 32.8825 16.4339C31.8594 17.5072 30.531 18.0997 29.1419 18.1025C28.2555 18.1041 26.5092 18.0512 25.2898 18.0098L25.2676 22.6992L31.2672 22.7173C31.6136 22.7184 31.9451 22.8588 32.1868 23.1071C32.4284 23.3553 32.5602 23.6903 32.552 24.0366C32.5511 24.0736 32.4653 27.7496 32.4653 29.1292C32.4653 29.8702 32.761 30.5606 33.298 31.0734C33.8369 31.5879 34.5456 31.8517 35.295 31.8176C36.6804 31.7535 37.808 30.6205 37.8622 29.2383C37.9175 27.8241 37.7975 24.0972 37.7963 24.0598C37.7849 23.7095 37.9166 23.3698 38.1611 23.1187C38.4056 22.8676 38.7393 22.7302 39.092 22.7288L46.0001 22.7685V7.24211C46.0001 4.3516 43.6496 2 40.7605 2H25.3464L25.3144 7.55372C26.5701 7.53593 28.3998 7.51969 29.3493 7.55673Z" fill="url(#paint2_linear_110_11165)"/>
<path d="M7.56171 18.6609C7.66767 15.9524 9.87455 13.7325 12.5858 13.6071C14.045 13.5388 15.429 14.0563 16.4824 15.0619C17.5338 16.0658 18.1129 17.4185 18.1129 18.8708C18.1129 19.7544 18.08 21.4949 18.0544 22.7085L22.6892 22.7225L22.7179 16.6679C22.7196 16.3186 22.863 15.9848 23.1153 15.7431C23.3676 15.5015 23.7071 15.3725 24.0563 15.3859C24.0933 15.3874 27.765 15.5274 29.1368 15.5244C29.8157 15.5231 30.4833 15.2144 31.0163 14.6551C31.5595 14.0853 31.8659 13.3533 31.8357 12.6969C31.7723 11.3132 30.636 10.187 29.2488 10.133C27.824 10.0773 24.0815 10.1528 24.0439 10.1537C23.6946 10.1593 23.3605 10.0271 23.1128 9.78303C22.8651 9.53897 22.7265 9.20518 22.7285 8.85739L22.7681 2H7.2422C4.3516 2 2 4.35048 2 7.23953V22.6533L7.5893 22.6854C7.5581 21.4295 7.52459 19.6095 7.56171 18.6609Z" fill="url(#paint3_linear_110_11165)"/>
<defs>
<linearGradient id="paint0_linear_110_11165" x1="16.1621" y1="25.2784" x2="48.9091" y2="32.1627" gradientUnits="userSpaceOnUse">
<stop stop-color="#C0830B"/>
<stop offset="1" stop-color="#FFE68B"/>
</linearGradient>
<linearGradient id="paint1_linear_110_11165" x1="2" y1="16.1797" x2="25.5172" y2="18.5668" gradientUnits="userSpaceOnUse">
<stop stop-color="#C0830B"/>
<stop offset="1" stop-color="#FFE68B"/>
</linearGradient>
<linearGradient id="paint2_linear_110_11165" x1="25.2676" y1="2" x2="48.7848" y2="4.3872" gradientUnits="userSpaceOnUse">
<stop stop-color="#C0830B"/>
<stop offset="1" stop-color="#FFE68B"/>
</linearGradient>
<linearGradient id="paint3_linear_110_11165" x1="2" y1="2" x2="34.7469" y2="8.8843" gradientUnits="userSpaceOnUse">
<stop stop-color="#C0830B"/>
<stop offset="1" stop-color="#FFE68B"/>
</linearGradient>
</defs>
</svg>
