<svg width="48" height="48" viewBox="0 0 48 48" fill="none" xmlns="http://www.w3.org/2000/svg">
<path fill-rule="evenodd" clip-rule="evenodd" d="M24.0003 23.0761L17.7634 19.4749L24.0003 15.8738L30.2381 19.4749L24.0003 23.0761ZM11.5856 17.7562L14.4638 19.4177L15.2636 18.9559V18.0318L12.3854 16.3708C12.1818 16.8661 11.9129 17.3321 11.5858 17.7562H11.5856ZM12.3847 31.6292L16.0632 29.5063L15.263 29.0442V28.1206L11.5854 30.2437C11.7487 30.4555 11.8977 30.6778 12.0315 30.9093C12.1653 31.141 12.2835 31.3813 12.3851 31.6288L12.3847 31.6292ZM24.8002 37.873V34.5508L24.0003 34.0887L23.2002 34.5506V37.8735C23.7313 37.802 24.2695 37.802 24.8006 37.8735L24.8002 37.873ZM36.4154 30.2437L32.7384 28.1205V29.0442L31.9378 29.5063L35.6156 31.6291C35.8194 31.1337 36.0884 30.6678 36.4154 30.2437ZM35.6159 16.3704L32.7388 18.0311V18.9553L33.5387 19.4171L36.4151 17.7562C36.0881 17.3321 35.8192 16.8662 35.6155 16.3709L35.6159 16.3704ZM24.0003 13.9109L24.8006 14.3728V10.1265C24.2695 10.198 23.7313 10.198 23.2002 10.1265V14.3728L24.0003 13.9109ZM44.7847 36C44.3654 36.7271 43.7399 37.3136 42.9873 37.6852C42.2346 38.0568 41.3887 38.1968 40.5564 38.0874C39.7242 37.9781 38.9431 37.6244 38.312 37.071C37.6808 36.5177 37.228 35.7895 37.0108 34.9787C36.7936 34.1679 36.8218 33.311 37.0918 32.5162C37.3617 31.7214 37.8614 31.0246 38.5275 30.5139C39.1936 30.0031 39.9962 29.7015 40.8339 29.647C41.6715 29.5926 42.5064 29.7878 43.233 30.208C43.7174 30.4842 44.1422 30.8538 44.4829 31.2953C44.8235 31.7369 45.0732 32.2415 45.2175 32.7802C45.3618 33.3188 45.3978 33.8807 45.3236 34.4334C45.2493 34.9861 45.0661 35.5185 44.7847 36ZM24.8006 31.6637L31.0384 28.0627V20.861L24.8006 24.4616V31.6637ZM28.2402 43.7597C28.2403 44.5983 27.9916 45.4181 27.5257 46.1153C27.0598 46.8126 26.3977 47.3561 25.6229 47.677C24.8482 47.9979 23.9957 48.0819 23.1732 47.9183C22.3507 47.7547 21.5952 47.3509 21.0022 46.758C20.4093 46.165 20.0054 45.4095 19.8418 44.587C19.6782 43.7646 19.7622 42.9121 20.0831 42.1373C20.404 41.3626 20.9475 40.7004 21.6447 40.2345C22.342 39.7686 23.1617 39.5199 24.0003 39.5199C25.1244 39.5212 26.2021 39.9683 26.9969 40.7631C27.7917 41.558 28.2389 42.6357 28.2401 43.7597H28.2402ZM16.9633 20.861V28.0627L23.2002 31.6637V24.4616L16.9633 20.861ZM10.9835 34.9766C10.7299 35.9243 10.1555 36.7548 9.35819 37.3265C8.56088 37.8982 7.59001 38.1758 6.611 38.1119C5.632 38.048 4.70544 37.6466 3.98922 36.9761C3.273 36.3056 2.81144 35.4075 2.68319 34.4348C2.55493 33.4621 2.76792 32.4751 3.28587 31.6418C3.80381 30.8086 4.59465 30.1808 5.52364 29.8653C6.45262 29.5498 7.46225 29.5662 8.38049 29.9117C9.29874 30.2572 10.0688 30.9104 10.5594 31.76C10.8391 32.2416 11.0206 32.7738 11.0934 33.3259C11.1662 33.878 11.1288 34.439 10.9835 34.9766ZM7.98536 18.2156C7.03753 18.4699 6.03083 18.3877 5.13681 17.983C4.24279 17.5783 3.51677 16.8761 3.08248 15.996C2.64818 15.116 2.53249 14.1126 2.75511 13.1568C2.97773 12.201 3.52489 11.352 4.30335 10.7544C5.08181 10.1569 6.04339 9.84774 7.02423 9.87971C8.00508 9.91168 8.94449 10.2828 9.68238 10.9298C10.4203 11.5767 10.911 12.4596 11.0709 13.4278C11.2308 14.3961 11.05 15.3898 10.5594 16.2397C10.282 16.7227 9.91178 17.146 9.46999 17.4851C9.0282 17.8242 8.52361 18.0725 7.98536 18.2156ZM19.7604 4.23953C19.7605 3.40097 20.0093 2.58129 20.4752 1.88412C20.9412 1.18696 21.6034 0.643614 22.3782 0.322804C23.153 0.00199354 24.0055 -0.0818777 24.8279 0.0817953C25.6503 0.245468 26.4057 0.649335 26.9986 1.24233C27.5915 1.83532 27.9953 2.5908 28.1588 3.41325C28.3224 4.2357 28.2384 5.08818 27.9174 5.86289C27.5965 6.6376 27.0531 7.29975 26.3558 7.76561C25.6586 8.23147 24.8389 8.48012 24.0003 8.48012C22.8761 8.47885 21.7983 8.03168 21.0034 7.23671C20.2086 6.44174 19.7615 5.36391 19.7604 4.23971V4.23953ZM37.0171 13.0227C37.2708 12.0747 37.8453 11.2439 38.6428 10.672C39.4403 10.1002 40.4115 9.82252 41.3908 9.88644C42.3701 9.95035 43.2969 10.3519 44.0133 11.0226C44.7297 11.6933 45.1914 12.5916 45.3197 13.5646C45.4479 14.5375 45.2349 15.5248 44.7167 16.3583C44.1986 17.1917 43.4075 17.8197 42.4783 18.1353C41.549 18.4508 40.5391 18.4343 39.6206 18.0887C38.7021 17.7431 37.9319 17.0896 37.4412 16.2397C37.1612 15.7582 36.9796 15.226 36.9068 14.6738C36.834 14.1216 36.8715 13.5605 37.0172 13.0229L37.0171 13.0227Z" fill="url(#paint0_linear_110_11068)"/>
<defs>
<linearGradient id="paint0_linear_110_11068" x1="2.64453" y1="0.000244141" x2="50.7852" y2="6.25538" gradientUnits="userSpaceOnUse">
<stop stop-color="#C0830B"/>
<stop offset="1" stop-color="#FFE68B"/>
</linearGradient>
</defs>
</svg>
