<svg width="48" height="48" viewBox="0 0 48 48" fill="none" xmlns="http://www.w3.org/2000/svg">
<path d="M24.7712 41.42C24.524 41.54 24.2608 41.6008 23.9984 41.6008C23.7376 41.6008 23.4768 41.5416 23.2344 41.4232L12.4952 36.0936L8.0776 38.284C8.056 38.2952 8 38.3224 8 38.4C8 38.4776 8.0552 38.5048 8.076 38.5152L23.94 46.388C23.9768 46.4048 24.0232 46.4064 24.0656 46.3848L39.9224 38.516C39.944 38.5048 40 38.4776 40 38.4C40 38.3224 39.9448 38.2952 39.924 38.2848L35.504 36.0936L24.7704 41.42H24.7712Z" fill="url(#paint0_linear_110_11149)"/>
<path d="M24.0628 33.5848L39.926 25.7128C39.9452 25.7024 39.9988 25.6768 39.9988 25.5992C39.9988 25.5216 39.946 25.496 39.926 25.4856L24.0628 17.6128C24.0244 17.5944 23.978 17.5936 23.938 17.6128L8.07475 25.4848C8.05555 25.4952 8.00195 25.5208 8.00195 25.5984C8.00195 25.676 8.05475 25.7016 8.07475 25.712L23.938 33.5848C23.978 33.6032 24.0244 33.604 24.0628 33.5848Z" fill="url(#paint1_linear_110_11149)"/>
<path d="M8 32C8 32.0776 8.0552 32.1048 8.076 32.1152L23.94 39.988C23.9768 40.0048 24.0232 40.0064 24.0656 39.9848L39.9224 32.116C39.944 32.1048 40 32.0776 40 32C40 31.9224 39.9448 31.8952 39.924 31.8848L35.504 29.6928L24.7736 35.0184C24.5312 35.1384 24.2656 35.1992 24 35.1992C23.7344 35.1992 23.4688 35.1392 23.2264 35.0192C22.984 34.8992 12.496 29.6928 12.496 29.6928L8.0776 31.884C8.056 31.8952 8 31.9224 8 32Z" fill="url(#paint2_linear_110_11149)"/>
<path d="M7.86441 30.2048L10.6964 28.8008L7.36281 27.1464C6.77001 26.852 6.40121 26.26 6.40121 25.6C6.40121 24.94 6.77001 24.3488 7.36281 24.0536L23.226 16.1808C23.71 15.94 24.2884 15.9408 24.7732 16.1808L40.6364 24.0544C41.2292 24.3488 41.598 24.9408 41.598 25.6008C41.598 26.2608 41.2292 26.852 40.6364 27.1472L37.3028 28.8016L39.8924 30.0856C43.7356 29.0608 46.3996 25.6144 46.3996 21.6016C46.3996 18.164 44.37 15.0208 41.2292 13.5936C40.958 13.4712 40.778 13.208 40.7612 12.9104C40.3988 6.56883 35.1444 1.60083 28.7996 1.60083C23.9548 1.60083 19.6132 4.48563 17.7372 8.95123C17.6508 9.15763 17.4812 9.31843 17.27 9.39443C17.0588 9.46963 16.8252 9.45283 16.6276 9.34883C15.9452 8.99123 15.1756 8.80083 14.3996 8.80083C11.7524 8.80083 9.59961 10.9536 9.59961 13.6008C9.59961 14.0152 9.28361 14.4 8.87241 14.4376C4.72601 14.8152 1.59961 18.2384 1.59961 22.4008C1.59961 26.1616 4.22041 29.4 7.86441 30.2048Z" fill="url(#paint3_linear_110_11149)"/>
<defs>
<linearGradient id="paint0_linear_110_11149" x1="8" y1="36.0936" x2="38.4214" y2="49.8833" gradientUnits="userSpaceOnUse">
<stop stop-color="#C0830B"/>
<stop offset="1" stop-color="#FFE68B"/>
</linearGradient>
<linearGradient id="paint1_linear_110_11149" x1="8.00195" y1="17.5987" x2="41.79" y2="27.464" gradientUnits="userSpaceOnUse">
<stop stop-color="#C0830B"/>
<stop offset="1" stop-color="#FFE68B"/>
</linearGradient>
<linearGradient id="paint2_linear_110_11149" x1="8" y1="29.6928" x2="38.4223" y2="43.4818" gradientUnits="userSpaceOnUse">
<stop stop-color="#C0830B"/>
<stop offset="1" stop-color="#FFE68B"/>
</linearGradient>
<linearGradient id="paint3_linear_110_11149" x1="1.59961" y1="1.60083" x2="50.3894" y2="12.7575" gradientUnits="userSpaceOnUse">
<stop stop-color="#C0830B"/>
<stop offset="1" stop-color="#FFE68B"/>
</linearGradient>
</defs>
</svg>
