<svg width="48" height="48" viewBox="0 0 48 48" fill="none" xmlns="http://www.w3.org/2000/svg">
<path fill-rule="evenodd" clip-rule="evenodd" d="M21.75 32.8125V9.375C22.4062 9.75 23.1562 10.0312 24 10.0312C24.8438 10.0312 25.5938 9.75 26.25 9.375V32.9062L21.75 32.8125Z" fill="url(#paint0_linear_110_11052)"/>
<path fill-rule="evenodd" clip-rule="evenodd" d="M7.78125 10.9688C7.40625 10.9688 7.125 10.5938 7.125 10.3125V5.625C7.125 5.25 7.40625 4.96875 7.78125 4.96875C8.15625 4.96875 8.4375 5.25 8.4375 5.625V10.3125C8.4375 10.5938 8.15625 10.9688 7.78125 10.9688Z" fill="url(#paint1_linear_110_11052)"/>
<path fill-rule="evenodd" clip-rule="evenodd" d="M40.2188 10.9688C39.8438 10.9688 39.5625 10.5938 39.5625 10.3125V5.625C39.5625 5.25 39.8438 4.96875 40.2188 4.96875C40.5938 4.96875 40.875 5.25 40.875 5.625V10.3125C40.875 10.5938 40.5938 10.9688 40.2188 10.9688Z" fill="url(#paint2_linear_110_11052)"/>
<path fill-rule="evenodd" clip-rule="evenodd" d="M24 8.71875C22.3125 8.71875 20.9062 7.3125 20.9062 5.625C20.9062 3.9375 22.3125 2.53125 24 2.53125C25.6875 2.53125 27.0938 3.9375 27.0938 5.625C27.0938 7.3125 25.6875 8.71875 24 8.71875Z" fill="url(#paint3_linear_110_11052)"/>
<path fill-rule="evenodd" clip-rule="evenodd" d="M15.0938 37.875V37.3125C15.0938 35.625 16.5 34.125 18.2812 34.125H29.7188C31.5 34.125 32.9062 35.625 32.9062 37.4062V37.9688L15.0938 37.875Z" fill="url(#paint4_linear_110_11052)"/>
<path fill-rule="evenodd" clip-rule="evenodd" d="M7.78125 29.9062C5.71875 29.9062 3.75 29.1562 2.34375 27.75C0.84375 26.3438 0 24.5625 0 22.6875C0 22.3125 0.28125 22.0312 0.65625 22.0312H14.9062C15.2812 22.0312 15.5625 22.3125 15.5625 22.6875C15.5625 24.5625 14.7188 26.3438 13.3125 27.75C11.8125 29.0625 9.84375 29.9062 7.78125 29.9062Z" fill="url(#paint5_linear_110_11052)"/>
<path fill-rule="evenodd" clip-rule="evenodd" d="M1.03125 20.7188L7.21875 9.9375C7.3125 9.75 7.59375 9.65625 7.78125 9.65625C8.0625 9.65625 8.25 9.75 8.34375 9.9375L14.5312 20.7188H1.03125Z" fill="url(#paint6_linear_110_11052)"/>
<path fill-rule="evenodd" clip-rule="evenodd" d="M40.2188 29.9062C38.1562 29.9062 36.1875 29.1562 34.6875 27.75C33.2812 26.3438 32.4375 24.5625 32.4375 22.6875C32.4375 22.3125 32.7188 22.0312 33.0938 22.0312H47.3438C47.7188 22.0312 48 22.3125 48 22.6875C48 24.5625 47.1562 26.3438 45.75 27.75C44.25 29.0625 42.2812 29.9062 40.2188 29.9062Z" fill="url(#paint7_linear_110_11052)"/>
<path fill-rule="evenodd" clip-rule="evenodd" d="M33.4688 20.7188L39.6562 9.9375C39.75 9.75 39.9375 9.65625 40.2188 9.65625C40.5 9.65625 40.6875 9.75 40.7812 9.9375L46.9688 20.7188H33.4688Z" fill="url(#paint8_linear_110_11052)"/>
<path fill-rule="evenodd" clip-rule="evenodd" d="M42.4688 6.28125H26.4375C26.0625 6.28125 25.7812 5.90625 25.7812 5.625C25.7812 5.25 26.0625 4.96875 26.4375 4.96875H42.4688C42.8438 4.96875 43.125 5.25 43.125 5.625C43.125 5.90625 42.8438 6.28125 42.4688 6.28125ZM21.5625 6.28125H5.53125C5.15625 6.28125 4.875 5.90625 4.875 5.625C4.875 5.25 5.15625 4.96875 5.53125 4.96875H21.5625C21.9375 4.96875 22.2188 5.25 22.2188 5.625C22.2188 5.90625 21.9375 6.28125 21.5625 6.28125Z" fill="url(#paint9_linear_110_11052)"/>
<path fill-rule="evenodd" clip-rule="evenodd" d="M37.125 45.4688H10.875C10.5 45.4688 10.2188 45.1875 10.2188 44.8125V42.375C10.2188 40.6875 11.625 39.1875 13.4062 39.1875L34.5938 39.2812C36.375 39.2812 37.7812 40.6875 37.7812 42.4688V44.9062C37.7812 45.1875 37.5 45.4688 37.125 45.4688Z" fill="url(#paint10_linear_110_11052)"/>
<defs>
<linearGradient id="paint0_linear_110_11052" x1="21.75" y1="9.375" x2="26.903" y2="9.51888" gradientUnits="userSpaceOnUse">
<stop stop-color="#C0830B"/>
<stop offset="1" stop-color="#FFE68B"/>
</linearGradient>
<linearGradient id="paint1_linear_110_11052" x1="7.125" y1="4.96875" x2="8.6276" y2="5.01674" gradientUnits="userSpaceOnUse">
<stop stop-color="#C0830B"/>
<stop offset="1" stop-color="#FFE68B"/>
</linearGradient>
<linearGradient id="paint2_linear_110_11052" x1="39.5625" y1="4.96875" x2="41.0651" y2="5.01674" gradientUnits="userSpaceOnUse">
<stop stop-color="#C0830B"/>
<stop offset="1" stop-color="#FFE68B"/>
</linearGradient>
<linearGradient id="paint3_linear_110_11052" x1="20.9062" y1="2.53125" x2="27.8491" y2="3.54494" gradientUnits="userSpaceOnUse">
<stop stop-color="#C0830B"/>
<stop offset="1" stop-color="#FFE68B"/>
</linearGradient>
<linearGradient id="paint4_linear_110_11052" x1="15.0938" y1="34.125" x2="29.0966" y2="43.5994" gradientUnits="userSpaceOnUse">
<stop stop-color="#C0830B"/>
<stop offset="1" stop-color="#FFE68B"/>
</linearGradient>
<linearGradient id="paint5_linear_110_11052" x1="0" y1="22.0313" x2="16.464" y2="26.7816" gradientUnits="userSpaceOnUse">
<stop stop-color="#C0830B"/>
<stop offset="1" stop-color="#FFE68B"/>
</linearGradient>
<linearGradient id="paint6_linear_110_11052" x1="1.03125" y1="9.65625" x2="16.0263" y2="12.328" gradientUnits="userSpaceOnUse">
<stop stop-color="#C0830B"/>
<stop offset="1" stop-color="#FFE68B"/>
</linearGradient>
<linearGradient id="paint7_linear_110_11052" x1="32.4375" y1="22.0313" x2="48.9015" y2="26.7816" gradientUnits="userSpaceOnUse">
<stop stop-color="#C0830B"/>
<stop offset="1" stop-color="#FFE68B"/>
</linearGradient>
<linearGradient id="paint8_linear_110_11052" x1="33.4688" y1="9.65625" x2="48.4638" y2="12.328" gradientUnits="userSpaceOnUse">
<stop stop-color="#C0830B"/>
<stop offset="1" stop-color="#FFE68B"/>
</linearGradient>
<linearGradient id="paint9_linear_110_11052" x1="4.875" y1="4.96875" x2="7.16943" y2="14.7315" gradientUnits="userSpaceOnUse">
<stop stop-color="#C0830B"/>
<stop offset="1" stop-color="#FFE68B"/>
</linearGradient>
<linearGradient id="paint10_linear_110_11052" x1="10.2188" y1="39.1875" x2="32.6133" y2="53.5351" gradientUnits="userSpaceOnUse">
<stop stop-color="#C0830B"/>
<stop offset="1" stop-color="#FFE68B"/>
</linearGradient>
</defs>
</svg>
