<svg width="48" height="48" viewBox="0 0 48 48" fill="none" xmlns="http://www.w3.org/2000/svg">
<path d="M17.4687 43.2053C18.8926 43.2053 20.0469 42.051 20.0469 40.6271C20.0469 39.2033 18.8926 38.049 17.4687 38.049C16.0449 38.049 14.8906 39.2033 14.8906 40.6271C14.8906 42.051 16.0449 43.2053 17.4687 43.2053Z" fill="url(#paint0_linear_110_11132)"/>
<path d="M4.30742 25.8L4.95032 24.2142C6.14623 21.2644 8.97563 19.3584 12.1586 19.3584C14.5933 19.3584 16.8368 20.4695 18.3033 22.3662H29.6968C31.1633 20.4693 33.4068 19.3584 35.8414 19.3584C39.0244 19.3584 41.8538 21.2644 43.0497 24.2142L43.6926 25.8C43.9393 25.569 44.1714 25.3215 44.3848 25.0569C45.4264 23.7653 46 22.1386 46 20.4766C46 17.1846 43.7895 14.3364 40.7069 13.4547C40.2013 8.47599 35.9848 4.57812 30.875 4.57812C29.8434 4.57812 28.8345 4.73496 27.8654 5.04519C25.5995 3.07559 22.7318 2 19.7031 2C13.1697 2 7.79459 7.05398 7.28215 13.4578C4.20524 14.343 2 17.1884 2 20.4766C2 22.1386 2.57363 23.7653 3.6152 25.0569C3.82858 25.3215 4.06069 25.569 4.30742 25.8Z" fill="url(#paint1_linear_110_11132)"/>
<path d="M40.6604 25.182C39.861 23.21 37.9694 21.9357 35.8414 21.9357C34.0341 21.9357 32.3842 22.8515 31.4283 24.3855C31.2138 24.7297 30.8163 24.9435 30.391 24.9435H17.609C17.1837 24.9435 16.7862 24.7297 16.5717 24.3855C15.6157 22.8515 13.9659 21.9357 12.1586 21.9357C10.0307 21.9357 8.13912 23.21 7.33955 25.182L2.9057 36.1189C2.30473 37.6014 2 39.1641 2 40.7637C2 42.5524 2.89899 44.199 4.40487 45.1682C5.2633 45.7206 6.23199 45.9992 7.22741 45.9992C8.02224 45.9992 8.83418 45.8215 9.62025 45.4638C9.65454 45.4482 9.68737 45.4297 9.71848 45.4083L12.9826 43.1642C12.557 42.4145 12.3126 41.5491 12.3126 40.6271C12.3126 37.784 14.6257 35.4709 17.4688 35.4709C20.312 35.4709 22.6251 37.784 22.6251 40.6271C22.6251 40.8455 22.6099 41.0603 22.5834 41.2717H25.4168C25.3904 41.0603 25.3752 40.8455 25.3752 40.6271C25.3752 37.784 27.6883 35.4709 30.5314 35.4709C33.3746 35.4709 35.6877 37.784 35.6877 40.6271C35.6877 41.5491 35.4433 42.4145 35.0176 43.1642L37.7436 45.0383C38.6273 45.6459 39.6368 45.9775 40.6629 45.9972C42.0804 46.0244 43.4195 45.493 44.4311 44.5007C45.4428 43.5081 46 42.181 46 40.7637C46 39.1641 45.6953 37.6014 45.0943 36.1189L40.6604 25.182ZM16.6094 32.1193H15.3203V33.4084C15.3203 34.1203 14.7432 34.6974 14.0312 34.6974C13.3193 34.6974 12.7422 34.1203 12.7422 33.4084V32.1193H11.4531C10.7412 32.1193 10.1641 31.5422 10.1641 30.8303C10.1641 30.1184 10.7412 29.5412 11.4531 29.5412H12.7422V28.2521C12.7422 27.5402 13.3193 26.9631 14.0312 26.9631C14.7432 26.9631 15.3203 27.5402 15.3203 28.2521V29.5412H16.6094C17.3213 29.5412 17.8984 30.1184 17.8984 30.8303C17.8984 31.5422 17.3213 32.1193 16.6094 32.1193ZM31.3906 32.1193C30.6787 32.1193 30.1016 31.5422 30.1016 30.8303C30.1016 30.1184 30.6787 29.5412 31.3906 29.5412C32.1025 29.5412 32.6797 30.1184 32.6797 30.8303C32.6797 31.5422 32.1025 32.1193 31.3906 32.1193ZM36.5469 32.1193C35.835 32.1193 35.2578 31.5422 35.2578 30.8303C35.2578 30.1184 35.835 29.5412 36.5469 29.5412C37.2588 29.5412 37.8359 30.1184 37.8359 30.8303C37.8359 31.5422 37.2588 32.1193 36.5469 32.1193Z" fill="url(#paint2_linear_110_11132)"/>
<path d="M30.5312 43.2053C31.9551 43.2053 33.1094 42.051 33.1094 40.6271C33.1094 39.2033 31.9551 38.049 30.5312 38.049C29.1074 38.049 27.9531 39.2033 27.9531 40.6271C27.9531 42.051 29.1074 43.2053 30.5312 43.2053Z" fill="url(#paint3_linear_110_11132)"/>
<defs>
<linearGradient id="paint0_linear_110_11132" x1="14.8906" y1="38.049" x2="20.6764" y2="38.8938" gradientUnits="userSpaceOnUse">
<stop stop-color="#C0830B"/>
<stop offset="1" stop-color="#FFE68B"/>
</linearGradient>
<linearGradient id="paint1_linear_110_11132" x1="2" y1="2" x2="48.9998" y2="14.6863" gradientUnits="userSpaceOnUse">
<stop stop-color="#C0830B"/>
<stop offset="1" stop-color="#FFE68B"/>
</linearGradient>
<linearGradient id="paint2_linear_110_11132" x1="2" y1="21.9357" x2="49.0694" y2="34.5018" gradientUnits="userSpaceOnUse">
<stop stop-color="#C0830B"/>
<stop offset="1" stop-color="#FFE68B"/>
</linearGradient>
<linearGradient id="paint3_linear_110_11132" x1="27.9531" y1="38.049" x2="33.7389" y2="38.8938" gradientUnits="userSpaceOnUse">
<stop stop-color="#C0830B"/>
<stop offset="1" stop-color="#FFE68B"/>
</linearGradient>
</defs>
</svg>
