<svg width="91" height="21" viewBox="0 0 91 21" fill="none" xmlns="http://www.w3.org/2000/svg">
<mask id="mask0_8289_1767" style="mask-type:luminance" maskUnits="userSpaceOnUse" x="0" y="0" width="90" height="21">
<path d="M89.6633 0.729248H0.5V20.7292H89.6633V0.729248Z" fill="white"/>
</mask>
<g mask="url(#mask0_8289_1767)">
<path d="M35.3833 7.09851C35.93 7.433 36.3948 7.90687 36.6818 8.53405C37.0236 9.16122 37.1876 9.92777 37.1876 10.764C37.1876 11.6002 37.0236 12.325 36.6408 12.9522C36.2991 13.5793 35.7933 14.0532 35.1646 14.3459C34.5358 14.6804 33.7703 14.8476 32.9775 14.8476C32.5128 14.8476 32.089 14.764 31.679 14.5968C31.2552 14.4713 30.8861 14.2205 30.5854 13.9278V18.318H28.1387V6.75007H30.2437L30.4487 7.68387C31.3782 6.93126 32.3897 6.54102 33.4423 6.54102C34.1667 6.55495 34.8365 6.7222 35.3833 7.09851ZM34.03 12.3389C34.4538 11.9626 34.6588 11.4469 34.6588 10.8198C34.6588 10.1926 34.4538 9.6769 34.071 9.25879C33.6883 8.84067 33.1826 8.67342 32.6358 8.67342C32.171 8.67342 31.7473 8.75705 31.4192 8.96611C31.0775 9.13335 30.8315 9.42603 30.6264 9.81628V11.6978C30.7495 12.0741 31.0092 12.3668 31.2962 12.5898C31.6379 12.7989 32.007 12.9243 32.4718 12.9243C33.1142 12.9243 33.62 12.7152 34.03 12.3389Z" fill="white"/>
<path d="M38.6229 8.57601C39.0057 7.99065 39.5114 7.47497 40.1812 7.14047C40.851 6.80598 41.6165 6.59692 42.4503 6.59692C43.2841 6.59692 44.0495 6.76417 44.7193 7.14047C45.3481 7.47497 45.8539 7.99065 46.2366 8.61783C46.6193 9.24501 46.7834 9.92793 46.7834 10.7224C46.7834 11.5168 46.6193 12.1997 46.2366 12.8269C45.8539 13.4541 45.3891 13.9697 44.7193 14.3042C44.0906 14.6387 43.2841 14.8478 42.4503 14.8478C41.6165 14.8478 40.851 14.6805 40.1812 14.346C39.5114 14.0116 39.0057 13.5377 38.6229 12.9105C38.2812 12.2833 38.0762 11.5586 38.0762 10.7224C38.0762 9.92793 38.2812 9.20319 38.6229 8.57601ZM41.1107 12.2415C41.4524 12.6596 41.9035 12.8269 42.4639 12.8269C43.0107 12.8269 43.4755 12.6178 43.8172 12.2415C44.1589 11.8652 44.3229 11.3077 44.3229 10.7224C44.3229 10.0952 44.1589 9.5795 43.8172 9.20319C43.4344 8.78507 43.0244 8.57601 42.4229 8.57601C41.8762 8.57601 41.4524 8.78507 41.0697 9.16138C40.728 9.5795 40.5639 10.0952 40.5639 10.7224C40.5639 11.3217 40.728 11.8234 41.1107 12.2415Z" fill="white"/>
<path d="M50.7339 0.77124V14.6528H48.2871V0.77124H50.7339Z" fill="white"/>
<path d="M60.753 6.97316L55.7912 18.3599H53.4401L55.2854 14.2624L51.7451 6.95923H54.5199L56.543 11.5167L58.566 6.95923H60.753V6.97316Z" fill="white"/>
<path d="M70.1026 6.97345V14.6529C70.1026 15.3637 69.8976 16.0466 69.4738 16.632C69.0501 17.2174 68.5033 17.6912 67.7925 18.0257C67.0817 18.3602 66.3163 18.5275 65.4824 18.5275C64.8537 18.5275 64.3069 18.4438 63.8422 18.3184C63.3774 18.1512 62.9947 17.9839 62.7076 17.8167C62.3659 17.6076 62.0378 17.3567 61.6551 17.0083L63.0904 15.3219C63.4321 15.6564 63.8011 15.9073 64.1429 16.0745C64.4846 16.2417 64.9357 16.3672 65.4414 16.3672C66.0702 16.3672 66.576 16.1999 66.9997 15.9073C67.4235 15.6146 67.6285 15.1546 67.6285 14.5971V13.51C67.3824 13.8863 67.0407 14.2208 66.535 14.4856C66.0292 14.7365 65.4414 14.862 64.7716 14.862C64.1019 14.862 63.4184 14.6947 62.8306 14.3184C62.2429 13.9839 61.7781 13.4682 61.3954 12.8411C61.0537 12.2139 60.8486 11.5309 60.8486 10.7783C60.8486 10.0257 61.0127 9.30098 61.3954 8.6738C61.7781 8.04662 62.2429 7.53095 62.8717 7.15464C63.4594 6.77833 64.0882 6.61108 64.7716 6.61108C65.4004 6.61108 65.9472 6.69471 66.4529 6.86195C66.9587 7.0292 67.3414 7.28008 67.5875 7.57276L67.8335 6.98739H70.1026V6.97345ZM67.6148 11.6982V9.80272C67.4508 9.42642 67.1911 9.13373 66.822 8.91074C66.4393 8.70168 66.0292 8.57624 65.5234 8.57624C64.9357 8.57624 64.4299 8.7853 64.0062 9.1616C63.5824 9.53791 63.3774 10.0536 63.3774 10.6808C63.3774 11.2661 63.5824 11.8236 64.0062 12.2417C64.4299 12.6599 64.9357 12.8689 65.5234 12.8689C66.4803 12.8411 67.1911 12.4647 67.6148 11.6982Z" fill="white"/>
<path d="M72.1122 8.57584C72.4949 7.94866 73.0007 7.4748 73.6705 7.09849C74.3403 6.76399 75.1057 6.55493 75.9395 6.55493C76.787 6.55493 77.5388 6.72218 78.2086 7.09849C78.8374 7.43298 79.3431 7.94866 79.7259 8.57584C80.0676 9.20302 80.2726 9.88595 80.2726 10.6804C80.2726 11.4887 80.1086 12.1577 79.7259 12.7849C79.3841 13.4121 78.8784 13.9278 78.2086 14.2623C77.5798 14.5967 76.7733 14.8058 75.9395 14.8058C75.092 14.8058 74.3403 14.6386 73.6705 14.3041C73.0007 13.9696 72.4949 13.4957 72.1122 12.8685C71.7295 12.2413 71.5654 11.5166 71.5654 10.6386C71.5654 9.92776 71.7431 9.20302 72.1122 8.57584ZM74.559 12.2413C74.9007 12.6595 75.3518 12.8267 75.9122 12.8267C76.4589 12.8267 76.9237 12.6177 77.2654 12.2413C77.6071 11.865 77.7712 11.3075 77.7712 10.7222C77.7712 10.095 77.6071 9.57932 77.2654 9.20302C76.9237 8.82671 76.4726 8.61766 75.9122 8.61766C75.3654 8.61766 74.9417 8.82671 74.559 9.20302C74.1762 9.57932 74.0122 10.1368 74.0122 10.7222C74.0532 11.3215 74.2172 11.8232 74.559 12.2413Z" fill="white"/>
<path d="M88.9116 7.2241C89.4174 7.64222 89.6224 8.19971 89.6634 8.8687V14.6527H87.1756V9.8025C87.1346 9.04989 86.7519 8.65964 86.0411 8.65964C85.4943 8.65964 85.0296 8.91051 84.6879 9.468C84.3461 10.0116 84.1821 10.6945 84.1821 11.4889V14.6527H81.7354V6.97322H83.9634L84.1274 8.19971C84.4282 7.69797 84.7972 7.30773 85.303 7.01504C85.8087 6.72236 86.3965 6.59692 87.0663 6.59692C87.8181 6.59692 88.4469 6.80598 88.9116 7.2241Z" fill="white"/>
<path d="M17.7094 6.84781C17.2856 6.59694 16.7389 6.59694 16.2741 6.84781L12.9935 8.78508L10.7655 10.0534L7.48489 11.9907C7.06115 12.2415 6.51439 12.2415 6.04964 11.9907L3.43885 10.4715C3.01511 10.2206 2.72806 9.7607 2.72806 9.24502V6.26244C2.72806 5.7607 2.9741 5.28683 3.43885 5.03596L6.00863 3.5586C6.43237 3.30773 6.97913 3.30773 7.44388 3.5586L10.0137 5.03596C10.4374 5.28683 10.7245 5.74676 10.7245 6.26244V8.19973L12.9525 6.88962V4.95233C12.9525 4.45059 12.7065 3.97672 12.2417 3.72585L7.48489 0.938397C7.06115 0.687526 6.51439 0.687526 6.04964 0.938397L1.21079 3.72585C0.746045 3.97672 0.5 4.43665 0.5 4.95233V10.5691C0.5 11.0708 0.746045 11.5447 1.21079 11.7955L6.04964 14.583C6.47338 14.8339 7.02014 14.8339 7.48489 14.583L10.7655 12.6875L12.9935 11.3774L16.2741 9.48195C16.6978 9.23108 17.2446 9.23108 17.7094 9.48195L20.2791 10.9593C20.7029 11.2102 20.9899 11.6701 20.9899 12.1858V15.1823C20.9899 15.684 20.7439 16.1579 20.2791 16.4088L17.7094 17.9279C17.2856 18.1788 16.7389 18.1788 16.2741 17.9279L13.7043 16.4506C13.2806 16.1997 12.9935 15.7398 12.9935 15.2241V13.2868L10.7655 14.5969V16.5342C10.7655 17.036 11.0115 17.5098 11.4763 17.7607L16.3151 20.5482C16.7388 20.799 17.2856 20.799 17.7504 20.5482L22.5892 17.7607C23.0129 17.5098 23.3 17.0499 23.3 16.5342V10.9175C23.3 10.4158 23.054 9.94188 22.5892 9.69101L17.7094 6.84781Z" fill="#8247E5"/>
</g>
</svg>
